<svg width="50" height="25" viewBox="0 0 50 25" fill="none" xmlns="http://www.w3.org/2000/svg">
<path d="M17.7494 6.59323L22.9529 12.7125L17.7525 18.8318C16.5458 20.0218 15.0143 20.8285 13.3504 21.1505C11.6865 21.4725 9.96457 21.2953 8.40109 20.6413C6.8376 19.9873 5.50237 18.8857 4.56326 17.475C3.62416 16.0642 3.12311 14.4073 3.12311 12.7125C3.12311 11.0178 3.62416 9.36085 4.56326 7.95008C5.50237 6.53932 6.8376 5.43769 8.40109 4.7837C9.96457 4.12972 11.6865 3.95257 13.3504 4.27454C15.0143 4.59651 16.5458 5.40321 17.7525 6.59323H17.7494ZM25 10.2998L20.0496 4.47117L20.0058 4.42429C18.3666 2.78556 16.2784 1.66967 14.0051 1.21771C11.7317 0.765749 9.37543 0.99802 7.2341 1.88515C5.09277 2.77229 3.26257 4.27444 1.97492 6.20168C0.687275 8.12892 0 10.3947 0 12.7125C0 15.0303 0.687275 17.2961 1.97492 19.2234C3.26257 21.1506 5.09277 22.6527 7.2341 23.5399C9.37543 24.427 11.7317 24.6593 14.0051 24.2073C16.2784 23.7554 18.3666 22.6395 20.0058 21.0007L20.0496 20.9539L25 15.1252L29.9504 20.9539L29.9942 21.0007C31.6333 22.6395 33.7216 23.7554 35.9949 24.2073C38.2683 24.6593 40.6246 24.427 42.7659 23.5399C44.9072 22.6527 46.7374 21.1506 48.0251 19.2234C49.3127 17.2961 50 15.0303 50 12.7125C50 10.3947 49.3127 8.12892 48.0251 6.20168C46.7374 4.27444 44.9072 2.77229 42.7659 1.88515C40.6246 0.99802 38.2683 0.765749 35.9949 1.21771C33.7216 1.66967 31.6333 2.78556 29.9942 4.42429L29.9504 4.47117L25 10.2998ZM27.0502 12.7125L32.2475 6.59323C33.4542 5.40321 34.9857 4.59651 36.6496 4.27454C38.3135 3.95257 40.0354 4.12972 41.5989 4.7837C43.1624 5.43769 44.4976 6.53932 45.4367 7.95008C46.3758 9.36085 46.8769 11.0178 46.8769 12.7125C46.8769 14.4073 46.3758 16.0642 45.4367 17.475C44.4976 18.8857 43.1624 19.9873 41.5989 20.6413C40.0354 21.2953 38.3135 21.4725 36.6496 21.1505C34.9857 20.8285 33.4542 20.0218 32.2475 18.8318L27.0502 12.7125Z" fill="#58D500"/>
</svg>
