<svg width="30" height="40" viewBox="0 0 30 40" fill="none" xmlns="http://www.w3.org/2000/svg">
<path d="M15.006 0.716797L19.1103 2.80568L23.6795 3.48747L25.7501 7.54919L29.038 10.7405L28.2855 15.2229L29.038 19.7053L25.7501 22.8967L23.6795 26.9584L19.1103 27.6402L15.006 29.7291L10.9016 27.6402L6.33243 26.9584L4.2618 22.8967L0.973877 19.7053L1.72639 15.2229L0.973877 10.7405L4.2618 7.54919L6.33243 3.48747L10.9016 2.80568L15.006 0.716797Z" fill="#58D500"/>
<path d="M5.16924 29.231V39.3998L15.006 36.9821L24.8427 39.3998V29.231L19.88 29.9708L15.006 32.4514L10.1319 29.9708L5.16924 29.231Z" fill="#58D500"/>
</svg>
