<svg width="36" height="36" viewBox="0 0 36 36" fill="none" xmlns="http://www.w3.org/2000/svg">
<path d="M35.872 17.6792C35.872 22.3059 34.034 26.7432 30.7624 30.0148C27.4908 33.2865 23.0535 35.1245 18.4267 35.1245C13.8 35.1245 9.36268 33.2865 6.09105 30.0148C2.81943 26.7432 0.981445 22.3059 0.981445 17.6792C0.981445 13.0524 2.81943 8.61512 6.09105 5.34349C9.36268 2.07187 13.8 0.233887 18.4267 0.233887C23.0535 0.233887 27.4908 2.07187 30.7624 5.34349C34.034 8.61512 35.872 13.0524 35.872 17.6792ZM19.0526 13.1129C17.356 13.8194 13.9629 15.2804 8.87762 17.496C8.05333 17.8231 7.61938 18.1458 7.58012 18.4598C7.5147 18.9897 8.17981 19.1991 9.08478 19.4848L9.4664 19.6047C10.3561 19.8947 11.5555 20.2327 12.177 20.2458C12.7439 20.2589 13.3741 20.0277 14.0698 19.548C18.8214 16.3402 21.2747 14.72 21.4273 14.6851C21.5364 14.659 21.689 14.6284 21.7893 14.72C21.8918 14.8094 21.8809 14.9817 21.87 15.0275C21.8046 15.3088 19.1943 17.7337 17.8445 18.9897C17.4236 19.3823 17.1249 19.6592 17.0638 19.7225C16.9294 19.8599 16.7927 19.9951 16.6539 20.1281C15.8252 20.9262 15.2059 21.5237 16.6866 22.5006C17.3996 22.9716 17.971 23.3576 18.5401 23.7458C19.1594 24.1688 19.7787 24.5897 20.5812 25.1174C20.784 25.2482 20.9803 25.39 21.17 25.5252C21.8918 26.0398 22.5438 26.5021 23.3441 26.428C23.8108 26.3844 24.2927 25.9482 24.5369 24.6398C25.1148 21.5498 26.2509 14.8574 26.5126 12.0989C26.5286 11.8695 26.5191 11.6392 26.4843 11.412C26.4637 11.2286 26.375 11.0597 26.2357 10.9387C26.0373 10.8018 25.8007 10.7308 25.5597 10.7359C24.9055 10.7469 23.8958 11.0979 19.0526 13.1129Z" fill="#58D500"/>
</svg>
