<svg width="39" height="39" viewBox="0 0 39 39" fill="none" xmlns="http://www.w3.org/2000/svg">
<path d="M20.4306 2.61497C20.0245 2.58498 19.6173 2.56996 19.21 2.56994V0.199952C19.6759 0.200179 20.1415 0.217571 20.606 0.252092L20.4306 2.61497ZM25.1804 3.68146C24.4206 3.38831 23.6403 3.15146 22.8458 2.97284L23.3649 0.659729C24.2726 0.863548 25.1661 1.13373 26.0336 1.47026L25.1804 3.68146ZM28.4274 5.36415C28.0886 5.13817 27.7415 4.92473 27.3869 4.72426L28.5554 2.66237C29.3658 3.12152 30.1413 3.63957 30.8758 4.21234L29.4181 6.08226C29.0968 5.83159 28.7663 5.59285 28.4274 5.36652V5.36415ZM32.7742 9.60643C32.3054 8.9404 31.7881 8.30986 31.2265 7.71992L32.9425 6.08463C33.5824 6.76008 34.175 7.48292 34.713 8.24132L32.7742 9.60643ZM34.5376 12.8107C34.382 12.4349 34.2128 12.0649 34.0304 11.7015L36.1469 10.635C36.5655 11.4671 36.9219 12.3289 37.2134 13.2135L34.9618 13.9554C34.8345 13.5687 34.693 13.1869 34.5376 12.8107ZM35.7937 18.7522C35.7746 17.9377 35.6954 17.1258 35.5567 16.323L37.8913 15.9201C38.0501 16.8349 38.1425 17.7639 38.1662 18.693L35.7961 18.7522H35.7937ZM35.4833 22.3972C35.5615 21.9944 35.6255 21.5938 35.6752 21.1886L38.0288 21.4801C37.9149 22.4047 37.7327 23.3197 37.4836 24.2174L35.1988 23.5846C35.3079 23.1936 35.4027 22.7978 35.4833 22.3972ZM33.2269 28.0354C33.663 27.3482 34.047 26.6277 34.3788 25.8835L36.5451 26.8433C36.1659 27.6965 35.7274 28.5166 35.2297 29.3034L33.2269 28.0354ZM30.9421 30.8913C31.2313 30.6021 31.5086 30.3035 31.7717 29.9954L33.5682 31.543C33.264 31.8958 32.9469 32.2373 32.6178 32.5669L30.9421 30.8913Z" fill="#58D500"/>
<path d="M19.21 2.56994C16.4817 2.57014 13.7956 3.24312 11.3895 4.5293C8.98348 5.81547 6.93176 7.67513 5.41609 9.94356C3.90043 12.212 2.96761 14.8192 2.70026 17.5342C2.43292 20.2492 2.83929 22.9882 3.88338 25.5087C4.92748 28.0292 6.57708 30.2532 8.68607 31.984C10.7951 33.7147 13.2983 34.8986 15.9742 35.4309C18.6501 35.9632 21.4159 35.8274 24.0267 35.0356C26.6376 34.2437 29.0128 32.8203 30.9421 30.8913L32.6178 32.5669C30.413 34.7728 27.698 36.4009 24.7135 37.3068C21.7291 38.2128 18.5672 38.3687 15.5081 37.7606C12.4489 37.1526 9.58702 35.7995 7.17588 33.8211C4.76475 31.8428 2.87883 29.3002 1.68524 26.4189C0.491645 23.5375 0.0272277 20.4062 0.333133 17.3024C0.639039 14.1987 1.70582 11.2183 3.43897 8.6253C5.17211 6.03234 7.5181 3.90687 10.2691 2.43723C13.02 0.967578 16.0911 0.199125 19.21 0.199952V2.56994Z" fill="#58D500"/>
<path d="M18.025 7.30991C18.3393 7.30991 18.6407 7.43476 18.8629 7.65699C19.0852 7.87922 19.21 8.18063 19.21 8.49491V20.8425L26.9082 25.2412C27.1731 25.4011 27.3651 25.6582 27.4429 25.9577C27.5208 26.2571 27.4785 26.5752 27.325 26.8438C27.1714 27.1125 26.9189 27.3104 26.6214 27.3954C26.3238 27.4803 26.0048 27.4455 25.7326 27.2984L17.4372 22.5584C17.2558 22.4548 17.105 22.3051 17.0002 22.1245C16.8953 21.9438 16.84 21.7387 16.8399 21.5298V8.49491C16.8399 8.18063 16.9648 7.87922 17.187 7.65699C17.4093 7.43476 17.7107 7.30991 18.025 7.30991Z" fill="#58D500"/>
</svg>
