<svg width="35" height="35" viewBox="0 0 35 35" fill="none" xmlns="http://www.w3.org/2000/svg">
<path d="M3.21787 34.366C3.21787 34.366 0.373535 34.366 0.373535 31.5216C0.373535 28.6773 3.21787 20.1443 17.4396 20.1443C31.6613 20.1443 34.5056 28.6773 34.5056 31.5216C34.5056 34.366 31.6613 34.366 31.6613 34.366H3.21787ZM17.4396 17.2999C19.7027 17.2999 21.8731 16.4009 23.4733 14.8007C25.0736 13.2004 25.9726 11.03 25.9726 8.76691C25.9726 6.50381 25.0736 4.3334 23.4733 2.73315C21.8731 1.1329 19.7027 0.233887 17.4396 0.233887C15.1765 0.233887 13.0061 1.1329 11.4058 2.73315C9.80557 4.3334 8.90655 6.50381 8.90655 8.76691C8.90655 11.03 9.80557 13.2004 11.4058 14.8007C13.0061 16.4009 15.1765 17.2999 17.4396 17.2999Z" fill="#58D500"/>
</svg>
