<svg width="51" height="38" viewBox="0 0 51 38" fill="none" xmlns="http://www.w3.org/2000/svg">
<path d="M43.1064 3.33112C43.5213 3.33112 43.9192 3.49427 44.2126 3.78469C44.5059 4.0751 44.6708 4.46899 44.6708 4.8797V28.1085H7.12547V4.8797C7.12547 4.46899 7.29029 4.0751 7.58367 3.78469C7.87705 3.49427 8.27495 3.33112 8.68985 3.33112H43.1064ZM8.68985 0.233948C7.44515 0.233948 6.25143 0.72341 5.37129 1.59466C4.49115 2.46591 3.99669 3.64757 3.99669 4.8797V31.2056H47.7995V4.8797C47.7995 3.64757 47.3051 2.46591 46.4249 1.59466C45.5448 0.72341 44.3511 0.233948 43.1064 0.233948H8.68985ZM0.86792 32.7542H50.9283C50.9283 33.9864 50.4338 35.168 49.5537 36.0393C48.6736 36.9105 47.4798 37.4 46.2351 37.4H5.56108C4.31638 37.4 3.12265 36.9105 2.24251 36.0393C1.36238 35.168 0.86792 33.9864 0.86792 32.7542Z" fill="#58D500"/>
<path d="M28.714 10.5696C28.714 10.3256 28.8129 10.0915 28.9889 9.91889C29.165 9.7463 29.4037 9.64934 29.6526 9.64934H31.5299C31.7788 9.64934 32.0176 9.7463 32.1936 9.91889C32.3696 10.0915 32.4685 10.3256 32.4685 10.5696V21.6133H32.9379C33.0623 21.6133 33.1817 21.6617 33.2697 21.748C33.3577 21.8343 33.4072 21.9514 33.4072 22.0734C33.4072 22.1955 33.3577 22.3125 33.2697 22.3988C33.1817 22.4851 33.0623 22.5336 32.9379 22.5336H18.8584C18.7339 22.5336 18.6145 22.4851 18.5265 22.3988C18.4385 22.3125 18.3891 22.1955 18.3891 22.0734C18.3891 21.9514 18.4385 21.8343 18.5265 21.748C18.6145 21.6617 18.7339 21.6133 18.8584 21.6133H19.3277V18.8524C19.3277 18.6083 19.4266 18.3742 19.6026 18.2016C19.7786 18.029 20.0174 17.9321 20.2663 17.9321H22.1436C22.3925 17.9321 22.6313 18.029 22.8073 18.2016C22.9833 18.3742 23.0822 18.6083 23.0822 18.8524V21.6133H24.0208V15.1712C24.0208 14.9271 24.1197 14.693 24.2958 14.5204C24.4718 14.3478 24.7105 14.2509 24.9595 14.2509H26.8367C27.0857 14.2509 27.3244 14.3478 27.5005 14.5204C27.6765 14.693 27.7754 14.9271 27.7754 15.1712V21.6133H28.714V10.5696Z" fill="#58D500"/>
</svg>
