<svg width="48" height="49" viewBox="0 0 48 49" fill="none" xmlns="http://www.w3.org/2000/svg">
<path d="M24 0.317017C17.6348 0.317017 11.5303 2.84558 7.02944 7.34645C2.52856 11.8473 0 17.9518 0 24.317C0 30.6822 2.52856 36.7867 7.02944 41.2876C11.5303 45.7885 17.6348 48.317 24 48.317C30.3652 48.317 36.4697 45.7885 40.9706 41.2876C45.4714 36.7867 48 30.6822 48 24.317C48 17.9518 45.4714 11.8473 40.9706 7.34645C36.4697 2.84558 30.3652 0.317017 24 0.317017ZM34.5 22.817C34.8978 22.817 35.2794 22.9751 35.5607 23.2564C35.842 23.5377 36 23.9192 36 24.317C36 24.7148 35.842 25.0964 35.5607 25.3777C35.2794 25.659 34.8978 25.817 34.5 25.817H17.121L23.562 32.255C23.7015 32.3945 23.8121 32.56 23.8876 32.7423C23.963 32.9245 24.0019 33.1198 24.0019 33.317C24.0019 33.5142 23.963 33.7096 23.8876 33.8918C23.8121 34.074 23.7015 34.2396 23.562 34.379C23.4225 34.5185 23.257 34.6291 23.0748 34.7046C22.8925 34.7801 22.6972 34.8189 22.5 34.8189C22.3028 34.8189 22.1075 34.7801 21.9252 34.7046C21.743 34.6291 21.5775 34.5185 21.438 34.379L12.438 25.379C12.2983 25.2397 12.1875 25.0742 12.1119 24.8919C12.0362 24.7097 11.9973 24.5143 11.9973 24.317C11.9973 24.1197 12.0362 23.9244 12.1119 23.7421C12.1875 23.5599 12.2983 23.3944 12.438 23.255L21.438 14.255C21.7197 13.9734 22.1017 13.8151 22.5 13.8151C22.8983 13.8151 23.2803 13.9734 23.562 14.255C23.8437 14.5367 24.0019 14.9187 24.0019 15.317C24.0019 15.7153 23.8437 16.0974 23.562 16.379L17.121 22.817H34.5Z" fill="#58D500"/>
</svg>
