<svg width="48" height="49" viewBox="0 0 48 49" fill="none" xmlns="http://www.w3.org/2000/svg">
<path d="M24 0.317017C30.3652 0.317017 36.4697 2.84558 40.9706 7.34645C45.4714 11.8473 48 17.9518 48 24.317C48 30.6822 45.4714 36.7867 40.9706 41.2876C36.4697 45.7885 30.3652 48.317 24 48.317C17.6348 48.317 11.5303 45.7885 7.02944 41.2876C2.52856 36.7867 0 30.6822 0 24.317C0 17.9518 2.52856 11.8473 7.02944 7.34645C11.5303 2.84558 17.6348 0.317017 24 0.317017ZM13.5 22.817C13.1022 22.817 12.7206 22.9751 12.4393 23.2564C12.158 23.5377 12 23.9192 12 24.317C12 24.7148 12.158 25.0964 12.4393 25.3777C12.7206 25.659 13.1022 25.817 13.5 25.817H30.879L24.438 32.255C24.2985 32.3945 24.1879 32.56 24.1124 32.7423C24.037 32.9245 23.9981 33.1198 23.9981 33.317C23.9981 33.5142 24.037 33.7096 24.1124 33.8918C24.1879 34.074 24.2985 34.2396 24.438 34.379C24.5775 34.5185 24.743 34.6291 24.9252 34.7046C25.1075 34.7801 25.3028 34.8189 25.5 34.8189C25.6972 34.8189 25.8925 34.7801 26.0748 34.7046C26.257 34.6291 26.4225 34.5185 26.562 34.379L35.562 25.379C35.7017 25.2397 35.8125 25.0742 35.8881 24.8919C35.9638 24.7097 36.0027 24.5143 36.0027 24.317C36.0027 24.1197 35.9638 23.9244 35.8881 23.7421C35.8125 23.5599 35.7017 23.3944 35.562 23.255L26.562 14.255C26.2803 13.9734 25.8983 13.8151 25.5 13.8151C25.1017 13.8151 24.7197 13.9734 24.438 14.255C24.1563 14.5367 23.9981 14.9187 23.9981 15.317C23.9981 15.7153 24.1563 16.0974 24.438 16.379L30.879 22.817H13.5Z" fill="#58D500"/>
</svg>
