<svg width="32" height="41" viewBox="0 0 32 41" fill="none" xmlns="http://www.w3.org/2000/svg">
<path d="M15.855 3.58793C12.4184 3.58793 9.12261 4.97307 6.6926 7.43865C4.26258 9.90422 2.89742 13.2483 2.89742 16.7351V19.3645H5.48893C6.17624 19.3645 6.8354 19.6416 7.3214 20.1347C7.8074 20.6278 8.08044 21.2966 8.08044 21.994V29.8823C8.08044 30.5796 7.8074 31.2484 7.3214 31.7416C6.8354 32.2347 6.17624 32.5117 5.48893 32.5117H2.89742C2.21011 32.5117 1.55095 32.2347 1.06494 31.7416C0.578941 31.2484 0.305908 30.5796 0.305908 29.8823V16.7351C0.305908 14.6633 0.708096 12.6118 1.48951 10.6977C2.27092 8.78355 3.41626 7.04435 4.86012 5.57936C6.30399 4.11436 8.0181 2.95227 9.9046 2.15942C11.7911 1.36657 13.813 0.958496 15.855 0.958496C17.8969 0.958496 19.9188 1.36657 21.8053 2.15942C23.6918 2.95227 25.4059 4.11436 26.8498 5.57936C28.2937 7.04435 29.439 8.78355 30.2204 10.6977C31.0018 12.6118 31.404 14.6633 31.404 16.7351V32.5117C31.404 34.2551 30.7214 35.9271 29.5064 37.1599C28.2914 38.3927 26.6435 39.0853 24.9252 39.0853H19.395C19.1675 39.485 18.8404 39.8169 18.4464 40.0477C18.0525 40.2785 17.6056 40.4 17.1507 40.4H14.5592C13.8719 40.4 13.2127 40.123 12.7267 39.6299C12.2407 39.1367 11.9677 38.4679 11.9677 37.7706C11.9677 37.0732 12.2407 36.4044 12.7267 35.9113C13.2127 35.4182 13.8719 35.1411 14.5592 35.1411H17.1507C17.6056 35.1411 18.0525 35.2626 18.4464 35.4934C18.8404 35.7242 19.1675 36.0561 19.395 36.4559H24.9252C25.9562 36.4559 26.945 36.0403 27.674 35.3006C28.403 34.561 28.8125 33.5578 28.8125 32.5117H26.221C25.5337 32.5117 24.8745 32.2347 24.3885 31.7416C23.9025 31.2484 23.6295 30.5796 23.6295 29.8823V21.994C23.6295 21.2966 23.9025 20.6278 24.3885 20.1347C24.8745 19.6416 25.5337 19.3645 26.221 19.3645H28.8125V16.7351C28.8125 15.0086 28.4774 13.299 27.8262 11.7039C27.175 10.1088 26.2206 8.65947 25.0173 7.43865C23.8141 6.21782 22.3857 5.24941 20.8136 4.5887C19.2415 3.92799 17.5566 3.58793 15.855 3.58793Z" fill="#58D500"/>
</svg>
